<?xml version="1.0" standalone="no"?>
<!DOCTYPE svg PUBLIC "-//W3C//DTD SVG 1.1//EN" "http://www.w3.org/Graphics/SVG/1.1/DTD/svg11.dtd">
<svg xmlns="http://www.w3.org/2000/svg" version="1.1">
  <title>genix-fisvg</title>
  <g id="layer1"  transform="translate(100 100)">
  <path d="
M 53.2622,-33.3689 L 46.547,-45 L 58.5304,-65.7559 L 39.8934,-73.4756 L 35,-65 L 27.0305,-78.8036
 L 7.5358,-86.8786 L 1.33974,-83.3013 L 45.9417,-6.04834 z
M -6.04834,-45.9417 L -33.3689,-53.2622 L -45,-46.547 L -65.7559,-58.5304 L -73.4756,-39.8934 L -65,-35
 L -78.8036,-27.0305 L -86.8786,-7.5358 L -83.3013,-1.33974 z
M 73.4756,39.8934 L 65,35 L 78.8036,27.0305 L 86.8786,7.5358 L 83.3013,1.33974 L 6.04834,45.9417
 L 33.3689,53.2622 L 45,46.547 L 65.7559,58.5304 z
M -1.33974,83.3013 L -45.9417,6.04834 L -53.2622,33.3689 L -46.547,45 L -58.5304,65.7559 L -39.8934,73.4756
 L -35,65 L -27.0305,78.8036 L -7.5358,86.8786 z
"  fill="#f0f0f0" /><path d="
M 14.0667,-61.2574 L 1.09389,-64.7335 L -5.10918,-87.8837 L -23.7462,-80.164 L -21.2132,-70.7107 L -36.6091,-74.836
 L -56.1038,-66.761 L -57.9555,-59.8502 L 28.2089,-36.7625 z
M 61.2574,14.0667 L 64.7335,1.09389 L 87.8837,-5.10918 L 80.164,-23.7462 L 70.7107,-21.2132 L 74.836,-36.6091
 L 66.761,-56.1038 L 59.8502,-57.9555 L 36.7625,28.2089 z
M -36.7625,-28.2089 L -61.2574,-14.0667 L -64.7335,-1.09389 L -87.8837,5.10918 L -80.164,23.7462 L -70.7107,21.2132
 L -74.836,36.6091 L -66.761,56.1038 L -59.8502,57.9555 z
M 23.7462,80.164 L 21.2132,70.7107 L 36.6091,74.836 L 56.1038,66.761 L 57.9555,59.8502 L -28.2089,36.7625
 L -14.0667,61.2574 L -1.09389,64.7335 L 5.10918,87.8837 z
"  fill="#102F6C" /><path d="
M 53.2622,-33.3689 L 46.547,-45 L 58.5304,-65.7559 L 39.8934,-73.4756 L 35,-65 L 27.0305,-78.8036
 L 7.5358,-86.8786 L 1.33974,-83.3013 L 45.9417,-6.04834 z
M -6.04834,-45.9417 L -33.3689,-53.2622 L -45,-46.547 L -65.7559,-58.5304 L -73.4756,-39.8934 L -65,-35
 L -78.8036,-27.0305 L -86.8786,-7.5358 L -83.3013,-1.33974 z
M 73.4756,39.8934 L 65,35 L 78.8036,27.0305 L 86.8786,7.5358 L 83.3013,1.33974 L 6.04834,45.9417
 L 33.3689,53.2622 L 45,46.547 L 65.7559,58.5304 z
M -1.33974,83.3013 L -45.9417,6.04834 L -53.2622,33.3689 L -46.547,45 L -58.5304,65.7559 L -39.8934,73.4756
 L -35,65 L -27.0305,78.8036 L -7.5358,86.8786 z
"  fill="#f0f0f0" /><path d="
M 14.0667,-61.2574 L 1.09389,-64.7335 L -5.10918,-87.8837 L -23.7462,-80.164 L -21.2132,-70.7107 L -36.6091,-74.836
 L -56.1038,-66.761 L -57.9555,-59.8502 L 28.2089,-36.7625 z
M 61.2574,14.0667 L 64.7335,1.09389 L 87.8837,-5.10918 L 80.164,-23.7462 L 70.7107,-21.2132 L 74.836,-36.6091
 L 66.761,-56.1038 L 59.8502,-57.9555 L 36.7625,28.2089 z
M -36.7625,-28.2089 L -61.2574,-14.0667 L -64.7335,-1.09389 L -87.8837,5.10918 L -80.164,23.7462 L -70.7107,21.2132
 L -74.836,36.6091 L -66.761,56.1038 L -59.8502,57.9555 z
M 23.7462,80.164 L 21.2132,70.7107 L 36.6091,74.836 L 56.1038,66.761 L 57.9555,59.8502 L -28.2089,36.7625
 L -14.0667,61.2574 L -1.09389,64.7335 L 5.10918,87.8837 z
"  fill="#102F6C" /><path d="
M 53.2622,-33.3689 L 46.547,-45 L 58.5304,-65.7559 L 39.8934,-73.4756 L 35,-65 L 27.0305,-78.8036
 L 7.5358,-86.8786 L 1.33974,-83.3013 L 45.9417,-6.04834 z
M -6.04834,-45.9417 L -33.3689,-53.2622 L -45,-46.547 L -65.7559,-58.5304 L -73.4756,-39.8934 L -65,-35
 L -78.8036,-27.0305 L -86.8786,-7.5358 L -83.3013,-1.33974 z
M 73.4756,39.8934 L 65,35 L 78.8036,27.0305 L 86.8786,7.5358 L 83.3013,1.33974 L 6.04834,45.9417
 L 33.3689,53.2622 L 45,46.547 L 65.7559,58.5304 z
M -1.33974,83.3013 L -45.9417,6.04834 L -53.2622,33.3689 L -46.547,45 L -58.5304,65.7559 L -39.8934,73.4756
 L -35,65 L -27.0305,78.8036 L -7.5358,86.8786 z
"  fill="#f0f0f0" /><path d="
M 14.0667,-61.2574 L 1.09389,-64.7335 L -5.10918,-87.8837 L -23.7462,-80.164 L -21.2132,-70.7107 L -36.6091,-74.836
 L -56.1038,-66.761 L -57.9555,-59.8502 L 28.2089,-36.7625 z
M 61.2574,14.0667 L 64.7335,1.09389 L 87.8837,-5.10918 L 80.164,-23.7462 L 70.7107,-21.2132 L 74.836,-36.6091
 L 66.761,-56.1038 L 59.8502,-57.9555 L 36.7625,28.2089 z
M -36.7625,-28.2089 L -61.2574,-14.0667 L -64.7335,-1.09389 L -87.8837,5.10918 L -80.164,23.7462 L -70.7107,21.2132
 L -74.836,36.6091 L -66.761,56.1038 L -59.8502,57.9555 z
M 23.7462,80.164 L 21.2132,70.7107 L 36.6091,74.836 L 56.1038,66.761 L 57.9555,59.8502 L -28.2089,36.7625
 L -14.0667,61.2574 L -1.09389,64.7335 L 5.10918,87.8837 z
"  fill="#102F6C" /><path d="
M 53.2622,-33.3689 L 46.547,-45 L 58.5304,-65.7559 L 39.8934,-73.4756 L 35,-65 L 27.0305,-78.8036
 L 7.5358,-86.8786 L 1.33974,-83.3013 L 45.9417,-6.04834 z
M -6.04834,-45.9417 L -33.3689,-53.2622 L -45,-46.547 L -65.7559,-58.5304 L -73.4756,-39.8934 L -65,-35
 L -78.8036,-27.0305 L -86.8786,-7.5358 L -83.3013,-1.33974 z
M 73.4756,39.8934 L 65,35 L 78.8036,27.0305 L 86.8786,7.5358 L 83.3013,1.33974 L 6.04834,45.9417
 L 33.3689,53.2622 L 45,46.547 L 65.7559,58.5304 z
M -1.33974,83.3013 L -45.9417,6.04834 L -53.2622,33.3689 L -46.547,45 L -58.5304,65.7559 L -39.8934,73.4756
 L -35,65 L -27.0305,78.8036 L -7.5358,86.8786 z
"  fill="#f0f0f0" /><path d="
M 14.0667,-61.2574 L 1.09389,-64.7335 L -5.10918,-87.8837 L -23.7462,-80.164 L -21.2132,-70.7107 L -36.6091,-74.836
 L -56.1038,-66.761 L -57.9555,-59.8502 L 28.2089,-36.7625 z
M 61.2574,14.0667 L 64.7335,1.09389 L 87.8837,-5.10918 L 80.164,-23.7462 L 70.7107,-21.2132 L 74.836,-36.6091
 L 66.761,-56.1038 L 59.8502,-57.9555 L 36.7625,28.2089 z
M -36.7625,-28.2089 L -61.2574,-14.0667 L -64.7335,-1.09389 L -87.8837,5.10918 L -80.164,23.7462 L -70.7107,21.2132
 L -74.836,36.6091 L -66.761,56.1038 L -59.8502,57.9555 z
M 23.7462,80.164 L 21.2132,70.7107 L 36.6091,74.836 L 56.1038,66.761 L 57.9555,59.8502 L -28.2089,36.7625
 L -14.0667,61.2574 L -1.09389,64.7335 L 5.10918,87.8837 z
"  fill="#102F6C" /><path d="
M 53.2622,-33.3689 L 46.547,-45 L 58.5304,-65.7559 L 39.8934,-73.4756 L 35,-65 L 27.0305,-78.8036
 L 7.5358,-86.8786 L 1.33974,-83.3013 L 45.9417,-6.04834 z
M -6.04834,-45.9417 L -33.3689,-53.2622 L -45,-46.547 L -65.7559,-58.5304 L -73.4756,-39.8934 L -65,-35
 L -78.8036,-27.0305 L -86.8786,-7.5358 L -83.3013,-1.33974 z
M 73.4756,39.8934 L 65,35 L 78.8036,27.0305 L 86.8786,7.5358 L 83.3013,1.33974 L 6.04834,45.9417
 L 33.3689,53.2622 L 45,46.547 L 65.7559,58.5304 z
M -1.33974,83.3013 L -45.9417,6.04834 L -53.2622,33.3689 L -46.547,45 L -58.5304,65.7559 L -39.8934,73.4756
 L -35,65 L -27.0305,78.8036 L -7.5358,86.8786 z
"  fill="#f0f0f0" />
  </g>
</svg>